<svg id="Capa_1" enable-background="new 0 0 512 512" height="512" viewBox="0 0 512 512" width="512" xmlns="http://www.w3.org/2000/svg"><path d="m384.534 126.399c-8.284 0-15-6.716-15-15v-56.233c0-13.877-11.29-25.166-25.167-25.166h-176.733c-13.877 0-25.167 11.289-25.167 25.166v56.233c0 8.284-6.716 15-15 15s-15-6.716-15-15v-56.233c0-30.419 24.748-55.166 55.167-55.166h176.733c30.419 0 55.167 24.747 55.167 55.166v56.233c0 8.285-6.716 15-15 15z" fill="#ca6d36"/><path d="m344.367 0h-88.368v30h88.368c13.877 0 25.167 11.289 25.167 25.166v56.233c0 8.284 6.716 15 15 15s15-6.716 15-15v-56.233c0-30.419-24.748-55.166-55.167-55.166z" fill="#b24d00"/><path d="m456.834 96.399h-401.667c-30.419 0-55.167 24.748-55.167 55.167v305.267c0 30.419 24.748 55.167 55.167 55.167h401.667c30.418 0 55.166-24.748 55.166-55.167v-305.267c0-30.419-24.748-55.167-55.166-55.167z" fill="#ff8a3c"/><path d="m456.834 96.399h-200.835v415.601h200.835c30.418 0 55.166-24.748 55.166-55.167v-305.267c0-30.419-24.748-55.167-55.166-55.167z" fill="#e56705"/><path d="m148.993 389.993 55.662-55.662c5.857-5.857 15.355-5.857 21.213 0s5.858 15.355 0 21.213l-55.662 55.662c-2.929 2.929-6.768 4.394-10.607 4.394s-7.678-1.465-10.606-4.394c-5.858-5.857-5.858-15.355 0-21.213z" fill="#ca6d36"/><path d="m148.993 411.206c2.929 2.929 6.768 4.394 10.606 4.394 3.839 0 7.678-1.465 10.607-4.394l55.662-55.662c5.858-5.857 5.858-15.355 0-21.213z" fill="#b24d00"/><circle cx="272.067" cy="288.133" fill="#a8ebfa" r="80.333"/><path d="m215.263 344.936c14.537 14.538 34.621 23.53 56.804 23.53 44.365 0 80.334-35.969 80.334-80.334 0-22.184-8.992-42.267-23.53-56.805z" fill="#76e2f8"/><path d="m176.734 288.133c0-52.566 42.766-95.333 95.332-95.333 52.567 0 95.334 42.767 95.334 95.333 0 52.567-42.767 95.334-95.334 95.334-52.566 0-95.332-42.767-95.332-95.334zm30 0c0 36.025 29.308 65.334 65.332 65.334 36.025 0 65.334-29.309 65.334-65.334 0-36.024-29.309-65.333-65.334-65.333-36.024 0-65.332 29.308-65.332 65.333z" fill="#8db9c4"/><path d="m339.446 220.754-21.203 21.203c11.83 11.83 19.157 28.163 19.157 46.176 0 36.025-29.309 65.334-65.334 65.334-18.013 0-34.346-7.327-46.176-19.158l-21.203 21.203c17.263 17.264 41.095 27.955 67.379 27.955 52.567 0 95.334-42.767 95.334-95.334 0-26.283-10.692-50.117-27.954-67.379z" fill="#678c97"/></svg>